<?xml version="1.0" encoding="utf-8"?>
<!-- Generator: Adobe Illustrator 26.0.1, SVG Export Plug-In . SVG Version: 6.00 Build 0)  -->
<svg version="1.1" xmlns="http://www.w3.org/2000/svg" xmlns:xlink="http://www.w3.org/1999/xlink" x="0px" y="0px"
	 viewBox="0 0 1920 1080" style="enable-background:new 0 0 1920 1080;" xml:space="preserve">
<style type="text/css">
	.st0{fill:#F5F5FB;}
	.st1{fill:#1F2E48;}
	.st2{fill:#FDC93A;}
	.st3{fill:none;stroke:#FCAE1D;stroke-width:0.5651;stroke-miterlimit:10;}
	.st4{fill:#FCAE1D;}
	.st5{font-family:'Anybody-Bold';}
	.st6{font-size:50.0362px;}
	.st7{fill:none;stroke:#1F2E48;stroke-width:0.4548;stroke-miterlimit:10;}
	.st8{fill:none;stroke:#FCAE1D;stroke-width:0.4658;stroke-miterlimit:10;}
	.st9{font-size:41.2447px;}
	.st10{fill:none;stroke:#1F2E48;stroke-width:0.3749;stroke-miterlimit:10;}
	.st11{fill:#FFFFFF;}
	.st12{fill:#DBDDFF;}
	.st13{fill:#FFFFFF;stroke:#444AB4;stroke-miterlimit:10;}
	.st14{fill:#FFFFFF;stroke:#444AB4;stroke-width:3;stroke-miterlimit:10;}
	.st15{fill:#444AB4;}
	.st16{fill:#091014;}
	.st17{fill:#A4C4FF;}
	.st18{fill:#F6AB78;}
	.st19{fill:none;stroke:#1F2E48;stroke-width:0.7485;stroke-miterlimit:10;}
	.st20{fill:#FF9A63;}
	.st21{fill:none;stroke:#000100;stroke-width:0.3304;stroke-miterlimit:10;}
	.st22{fill:none;stroke:#35281F;stroke-width:0.3304;stroke-miterlimit:10;}
	.st23{fill:#000100;}
	.st24{fill:none;stroke:#FFFFFF;stroke-width:0.7485;stroke-miterlimit:10;}
	.st25{fill:none;stroke:#1F2E48;stroke-width:0.9095;stroke-miterlimit:10;}
	.st26{fill:none;stroke:#1F2E48;stroke-width:0.8075;stroke-miterlimit:10;}
	.st27{fill:#FFA8DC;}
	.st28{fill:none;stroke:#231F20;stroke-width:0.8651;stroke-miterlimit:10;}
	.st29{fill:#1F2E48;stroke:#231F20;stroke-width:0.8651;stroke-miterlimit:10;}
	.st30{fill:none;stroke:#A9B3FE;stroke-width:0.8651;stroke-miterlimit:10;}
	.st31{fill:none;stroke:#FCAE1D;stroke-width:0.6407;stroke-miterlimit:10;}
	.st32{font-size:49.0564px;}
	.st33{fill:none;stroke:#A96C42;stroke-width:1.2156;stroke-miterlimit:10;}
	.st34{fill:#897FD3;}
	.st35{fill:#DADBF0;}
	.st36{fill:none;stroke:#44555B;stroke-width:1.3312;stroke-miterlimit:10;}
	.st37{fill:none;stroke:#A96C42;stroke-miterlimit:10;}
	.st38{fill:none;stroke:#B26033;stroke-width:1.2156;stroke-miterlimit:10;}
	.st39{fill:none;stroke:#444AB4;stroke-width:8;stroke-linecap:round;stroke-miterlimit:10;}
	.st40{font-family:'MyriadPro-Regular';}
	.st41{font-size:38.9689px;}
	.st42{font-size:23.2607px;}
	.st43{fill:#FEDF89;}
	.st44{font-size:33.2375px;}
	.st45{font-size:26.3203px;}
	.st46{opacity:0.47;}
	.st47{fill:#B4C6FF;}
	.st48{font-size:90.5551px;}
</style>
<g id="Layer_16">
	<path class="st0" d="M439.78,964.45c0,0-194.18-271.53,58.62-441.53c47.88-32.2,102.13-53.72,158.89-64.12
		c39.86-7.3,99.26-19.62,156.09-36.88c76.46-23.23,140.75-75.22,180.49-144.55c46.75-81.57,146.74-200.7,323.7-174.54
		c105.29,15.56,168.63,64.7,206.73,118.19c47.31,66.41,62.64,150.45,43.31,229.67l-6.47,26.51c0,0-6.89,91.59,57.45,153.89
		c64.34,62.3,114.89,215.62,43.66,323.94"/>
</g>
<g id="Layer_1">
	<rect x="463.49" y="950.84" class="st1" width="1150.28" height="2.5"/>
	<g>
		<polygon class="st2" points="1210.11,942.06 1121.44,939.88 1121.91,929.32 1210.58,931.5 		"/>
		
			<ellipse transform="matrix(0.0378 -0.9993 0.9993 0.0378 182.3174 2069.1592)" class="st2" cx="1165.66" cy="939.9" rx="10.76" ry="44.34"/>
		
			<ellipse transform="matrix(0.0378 -0.9993 0.9993 0.0378 191.3363 2061.7385)" class="st2" cx="1166.32" cy="931.51" rx="10.76" ry="44.34"/>
		<path class="st3" d="M1210.52,932.85c-0.43,5.93-20.61,9.95-45.08,8.98c-24.47-0.98-43.96-6.58-43.53-12.51"/>
		<g>
			<text transform="matrix(-0.0327 0.2948 -0.9981 -0.0615 1148.8252 924.7118)" class="st4 st5 st6">$</text>
		</g>
		<line class="st3" x1="1127.42" y1="934.7" x2="1126.47" y2="943.37"/>
		<line class="st3" x1="1136.72" y1="937.77" x2="1135.8" y2="945.96"/>
		<line class="st3" x1="1146.19" y1="940.44" x2="1145.27" y2="948.62"/>
		<line class="st3" x1="1156.55" y1="941.68" x2="1155.65" y2="949.37"/>
		<line class="st3" x1="1164.9" y1="943.15" x2="1164" y2="950.84"/>
		<line class="st3" x1="1173.64" y1="942.67" x2="1172.74" y2="950.36"/>
		<line class="st3" x1="1181.67" y1="942.87" x2="1180.77" y2="950.56"/>
		<line class="st3" x1="1190.57" y1="942.06" x2="1189.67" y2="949.76"/>
		<line class="st3" x1="1198.29" y1="940.11" x2="1197.39" y2="947.81"/>
		<line class="st3" x1="1206.6" y1="937.63" x2="1205.7" y2="945.32"/>
	</g>
	<g>
		<g>
			<polygon class="st2" points="1215.23,925.65 1126.56,923.47 1127.03,912.91 1215.7,915.09 			"/>
			
				<ellipse transform="matrix(0.0378 -0.9993 0.9993 0.0378 203.6454 2058.4861)" class="st2" cx="1170.78" cy="923.49" rx="10.76" ry="44.34"/>
			
				<ellipse transform="matrix(0.0378 -0.9993 0.9993 0.0378 212.6644 2051.0654)" class="st2" cx="1171.44" cy="915.1" rx="10.76" ry="44.34"/>
			<path class="st3" d="M1215.64,916.44c-0.43,5.93-20.61,9.95-45.08,8.97c-24.47-0.98-43.96-6.58-43.53-12.51"/>
			<g>
				<text transform="matrix(-0.0327 0.2948 -0.9981 -0.0615 1153.9474 908.2998)" class="st4 st5 st6">$</text>
			</g>
			<line class="st3" x1="1132.54" y1="918.29" x2="1131.59" y2="926.96"/>
			<line class="st3" x1="1141.84" y1="921.36" x2="1140.92" y2="929.54"/>
			<line class="st3" x1="1151.31" y1="924.03" x2="1150.39" y2="932.21"/>
			<line class="st3" x1="1161.67" y1="925.27" x2="1160.77" y2="932.96"/>
			<line class="st3" x1="1170.02" y1="926.74" x2="1169.12" y2="934.43"/>
			<line class="st3" x1="1178.76" y1="926.26" x2="1177.86" y2="933.95"/>
			<line class="st3" x1="1186.79" y1="926.45" x2="1185.89" y2="934.15"/>
			<line class="st3" x1="1195.69" y1="925.65" x2="1194.79" y2="933.34"/>
			<line class="st3" x1="1203.41" y1="923.7" x2="1202.51" y2="931.39"/>
			<line class="st3" x1="1211.73" y1="921.22" x2="1210.82" y2="928.91"/>
		</g>
		<path class="st7" d="M1126.56,922.56c0,0,2.34,9.65,43.96,11.59c0,0,39.3,1.18,44.56-8.89"/>
	</g>
	<g>
		<g>
			<polygon class="st2" points="1195.43,906.92 1106.77,904.74 1107.23,894.18 1195.9,896.36 			"/>
			
				<ellipse transform="matrix(0.0378 -0.9993 0.9993 0.0378 203.3155 2020.6772)" class="st2" cx="1150.98" cy="904.76" rx="10.76" ry="44.34"/>
			
				<ellipse transform="matrix(0.0378 -0.9993 0.9993 0.0378 212.3344 2013.2565)" class="st2" cx="1151.64" cy="896.36" rx="10.76" ry="44.34"/>
			<path class="st3" d="M1195.84,897.71c-0.43,5.93-20.61,9.95-45.08,8.97c-24.47-0.98-43.96-6.58-43.53-12.51"/>
			<g>
				<text transform="matrix(-0.0327 0.2948 -0.9981 -0.0615 1134.1486 889.5668)" class="st4 st5 st6">$</text>
			</g>
			<line class="st3" x1="1112.74" y1="899.55" x2="1111.79" y2="908.22"/>
			<line class="st3" x1="1122.05" y1="902.63" x2="1121.12" y2="910.81"/>
			<line class="st3" x1="1131.51" y1="905.29" x2="1130.59" y2="913.48"/>
			<line class="st3" x1="1141.87" y1="906.53" x2="1140.97" y2="914.23"/>
			<line class="st3" x1="1150.22" y1="908" x2="1149.32" y2="915.7"/>
			<line class="st3" x1="1158.96" y1="907.52" x2="1158.06" y2="915.22"/>
			<line class="st3" x1="1166.99" y1="907.72" x2="1166.09" y2="915.42"/>
			<line class="st3" x1="1175.89" y1="906.92" x2="1174.99" y2="914.61"/>
			<line class="st3" x1="1183.61" y1="904.97" x2="1182.71" y2="912.66"/>
			<line class="st3" x1="1191.93" y1="902.48" x2="1191.03" y2="910.18"/>
		</g>
		<path class="st7" d="M1106.77,903.83c0,0,2.34,9.65,43.96,11.59c0,0,39.3,1.18,44.56-8.89"/>
	</g>
	<g>
		<g>
			<polygon class="st2" points="1227.73,890.77 1139.07,888.59 1139.53,878.03 1228.2,880.21 			"/>
			
				<ellipse transform="matrix(0.0378 -0.9993 0.9993 0.0378 250.5271 2037.4208)" class="st2" cx="1183.28" cy="888.61" rx="10.76" ry="44.34"/>
			
				<ellipse transform="matrix(0.0378 -0.9993 0.9993 0.0378 259.5461 2030.0001)" class="st2" cx="1183.94" cy="880.22" rx="10.76" ry="44.34"/>
			<path class="st3" d="M1228.14,881.56c-0.43,5.93-20.61,9.95-45.08,8.98c-24.47-0.98-43.96-6.58-43.53-12.51"/>
			<g>
				<text transform="matrix(-0.0327 0.2948 -0.9981 -0.0615 1166.4487 873.4214)" class="st4 st5 st6">$</text>
			</g>
			<line class="st3" x1="1145.04" y1="883.41" x2="1144.09" y2="892.08"/>
			<line class="st3" x1="1154.35" y1="886.48" x2="1153.42" y2="894.67"/>
			<line class="st3" x1="1163.81" y1="889.15" x2="1162.89" y2="897.33"/>
			<line class="st3" x1="1174.17" y1="890.39" x2="1173.27" y2="898.08"/>
			<line class="st3" x1="1182.52" y1="891.86" x2="1181.62" y2="899.55"/>
			<line class="st3" x1="1191.26" y1="891.38" x2="1190.36" y2="899.07"/>
			<line class="st3" x1="1199.29" y1="891.58" x2="1198.39" y2="899.27"/>
			<line class="st3" x1="1208.2" y1="890.77" x2="1207.29" y2="898.47"/>
			<line class="st3" x1="1215.91" y1="888.82" x2="1215.01" y2="896.52"/>
			<line class="st3" x1="1224.23" y1="886.34" x2="1223.33" y2="894.03"/>
		</g>
		<path class="st7" d="M1139.07,887.68c0,0,2.34,9.65,43.96,11.59c0,0,39.3,1.18,44.56-8.89"/>
	</g>
	<g>
		<g>
			<polygon class="st2" points="1183.19,869.25 1094.52,867.07 1094.99,856.51 1183.66,858.69 			"/>
			
				<ellipse transform="matrix(0.0378 -0.9993 0.9993 0.0378 229.1722 1972.1985)" class="st2" cx="1138.74" cy="867.09" rx="10.76" ry="44.34"/>
			
				<ellipse transform="matrix(0.0378 -0.9993 0.9993 0.0378 238.1911 1964.7777)" class="st2" cx="1139.39" cy="858.7" rx="10.76" ry="44.34"/>
			<path class="st3" d="M1183.6,860.04c-0.43,5.93-20.61,9.95-45.08,8.98c-24.47-0.98-43.96-6.58-43.53-12.51"/>
			<g>
				<text transform="matrix(-0.0327 0.2948 -0.9981 -0.0615 1121.9016 851.8997)" class="st4 st5 st6">$</text>
			</g>
			<line class="st3" x1="1100.49" y1="861.89" x2="1099.55" y2="870.56"/>
			<line class="st3" x1="1109.8" y1="864.96" x2="1108.88" y2="873.14"/>
			<line class="st3" x1="1119.27" y1="867.63" x2="1118.34" y2="875.81"/>
			<line class="st3" x1="1129.63" y1="868.87" x2="1128.72" y2="876.56"/>
			<line class="st3" x1="1137.98" y1="870.34" x2="1137.07" y2="878.03"/>
			<line class="st3" x1="1146.72" y1="869.86" x2="1145.82" y2="877.55"/>
			<line class="st3" x1="1154.74" y1="870.05" x2="1153.84" y2="877.75"/>
			<line class="st3" x1="1163.65" y1="869.25" x2="1162.75" y2="876.94"/>
			<line class="st3" x1="1171.37" y1="867.3" x2="1170.46" y2="874.99"/>
			<line class="st3" x1="1179.68" y1="864.82" x2="1178.78" y2="872.51"/>
		</g>
		<path class="st7" d="M1094.52,866.16c0,0,2.34,9.65,43.96,11.59c0,0,39.3,1.18,44.56-8.89"/>
	</g>
	<g>
		<g>
			<polygon class="st2" points="1217.84,852.21 1129.18,850.03 1129.64,839.47 1218.31,841.65 			"/>
			
				<ellipse transform="matrix(0.0378 -0.9993 0.9993 0.0378 279.543 1990.437)" class="st2" cx="1173.39" cy="850.05" rx="10.76" ry="44.34"/>
			
				<ellipse transform="matrix(0.0378 -0.9993 0.9993 0.0378 288.562 1983.0162)" class="st2" cx="1174.05" cy="841.66" rx="10.76" ry="44.34"/>
			<path class="st3" d="M1218.25,843c-0.43,5.93-20.61,9.95-45.08,8.97c-24.47-0.98-43.96-6.58-43.53-12.51"/>
			<g>
				<text transform="matrix(-0.0327 0.2948 -0.9981 -0.0615 1156.559 834.8618)" class="st4 st5 st6">$</text>
			</g>
			<line class="st3" x1="1135.15" y1="844.85" x2="1134.2" y2="853.52"/>
			<line class="st3" x1="1144.46" y1="847.92" x2="1143.53" y2="856.11"/>
			<line class="st3" x1="1153.92" y1="850.59" x2="1153" y2="858.77"/>
			<line class="st3" x1="1164.28" y1="851.83" x2="1163.38" y2="859.52"/>
			<line class="st3" x1="1172.63" y1="853.3" x2="1171.73" y2="860.99"/>
			<line class="st3" x1="1181.37" y1="852.82" x2="1180.47" y2="860.51"/>
			<line class="st3" x1="1189.4" y1="853.02" x2="1188.5" y2="860.71"/>
			<line class="st3" x1="1198.3" y1="852.21" x2="1197.4" y2="859.91"/>
			<line class="st3" x1="1206.02" y1="850.26" x2="1205.12" y2="857.96"/>
			<line class="st3" x1="1214.34" y1="847.78" x2="1213.44" y2="855.47"/>
		</g>
		<path class="st7" d="M1129.18,849.12c0,0,2.34,9.65,43.96,11.59c0,0,39.3,1.18,44.56-8.89"/>
	</g>
	<g>
		<g>
			<polygon class="st2" points="1215.04,838.62 1126.37,836.44 1126.84,825.88 1215.5,828.06 			"/>
			
				<ellipse transform="matrix(0.0378 -0.9993 0.9993 0.0378 290.424 1974.5554)" class="st2" cx="1170.59" cy="836.46" rx="10.76" ry="44.34"/>
			
				<ellipse transform="matrix(0.0378 -0.9993 0.9993 0.0378 299.4429 1967.1346)" class="st2" cx="1171.24" cy="828.07" rx="10.76" ry="44.34"/>
			<path class="st3" d="M1215.45,829.41c-0.43,5.93-20.61,9.95-45.08,8.98c-24.47-0.98-43.96-6.58-43.53-12.51"/>
			<g>
				<text transform="matrix(-0.0327 0.2948 -0.9981 -0.0615 1153.752 821.2706)" class="st4 st5 st6">$</text>
			</g>
			<line class="st3" x1="1132.34" y1="831.26" x2="1131.4" y2="839.93"/>
			<line class="st3" x1="1141.65" y1="834.33" x2="1140.73" y2="842.52"/>
			<line class="st3" x1="1151.12" y1="837" x2="1150.19" y2="845.18"/>
			<line class="st3" x1="1161.48" y1="838.24" x2="1160.57" y2="845.93"/>
			<line class="st3" x1="1169.83" y1="839.71" x2="1168.92" y2="847.4"/>
			<line class="st3" x1="1178.57" y1="839.23" x2="1177.67" y2="846.92"/>
			<line class="st3" x1="1186.59" y1="839.43" x2="1185.69" y2="847.12"/>
			<line class="st3" x1="1195.5" y1="838.62" x2="1194.6" y2="846.31"/>
			<line class="st3" x1="1203.22" y1="836.67" x2="1202.31" y2="844.36"/>
			<line class="st3" x1="1211.53" y1="834.19" x2="1210.63" y2="841.88"/>
		</g>
		<path class="st7" d="M1126.37,835.53c0,0,2.34,9.65,43.96,11.59c0,0,39.3,1.18,44.56-8.89"/>
	</g>
	<g>
		<g>
			<polygon class="st2" points="1213.24,821.11 1124.57,818.93 1125.04,808.37 1213.71,810.55 			"/>
			
				<ellipse transform="matrix(0.0378 -0.9993 0.9993 0.0378 306.1924 1955.9147)" class="st2" cx="1168.79" cy="818.95" rx="10.76" ry="44.34"/>
			
				<ellipse transform="matrix(0.0378 -0.9993 0.9993 0.0378 315.2113 1948.4939)" class="st2" cx="1169.45" cy="810.56" rx="10.76" ry="44.34"/>
			<path class="st3" d="M1213.65,811.9c-0.43,5.93-20.61,9.95-45.08,8.98c-24.47-0.98-43.96-6.58-43.53-12.51"/>
			<g>
				<text transform="matrix(-0.0327 0.2948 -0.9981 -0.0615 1151.9563 803.7614)" class="st4 st5 st6">$</text>
			</g>
			<line class="st3" x1="1130.55" y1="813.75" x2="1129.6" y2="822.42"/>
			<line class="st3" x1="1139.85" y1="816.82" x2="1138.93" y2="825.01"/>
			<line class="st3" x1="1149.32" y1="819.49" x2="1148.4" y2="827.67"/>
			<line class="st3" x1="1159.68" y1="820.73" x2="1158.78" y2="828.42"/>
			<line class="st3" x1="1168.03" y1="822.2" x2="1167.13" y2="829.89"/>
			<line class="st3" x1="1176.77" y1="821.72" x2="1175.87" y2="829.41"/>
			<line class="st3" x1="1184.8" y1="821.92" x2="1183.9" y2="829.61"/>
			<line class="st3" x1="1193.7" y1="821.11" x2="1192.8" y2="828.81"/>
			<line class="st3" x1="1201.42" y1="819.16" x2="1200.52" y2="826.86"/>
			<line class="st3" x1="1209.73" y1="816.68" x2="1208.83" y2="824.37"/>
		</g>
		<path class="st7" d="M1124.57,818.02c0,0,2.34,9.65,43.96,11.59c0,0,39.3,1.18,44.56-8.89"/>
	</g>
	<g>
		<g>
			<polygon class="st2" points="1109.39,894.35 1039,948.31 1032.73,939.8 1103.12,885.84 			"/>
			
				<ellipse transform="matrix(0.8017 -0.5978 0.5978 0.8017 -337.3978 824.2754)" class="st2" cx="1073.43" cy="920.57" rx="44.34" ry="10.76"/>
			
				<ellipse transform="matrix(0.8017 -0.5978 0.5978 0.8017 -334.1893 820.0533)" class="st2" cx="1068.67" cy="913.63" rx="44.34" ry="10.76"/>
			<path class="st3" d="M1103.93,886.93c3.39,4.89-9.8,20.68-29.46,35.28c-19.66,14.6-38.35,22.47-41.74,17.59"/>
			<g>
				<text transform="matrix(0.1596 0.25 -0.8156 0.5786 1050.689 919.2688)" class="st4 st5 st6">$</text>
			</g>
			<line class="st3" x1="1040.39" y1="940.53" x2="1045.1" y2="947.87"/>
			<line class="st3" x1="1049.57" y1="937.08" x2="1053.99" y2="944.03"/>
			<line class="st3" x1="1058.61" y1="933.21" x2="1063.03" y2="940.16"/>
			<line class="st3" x1="1067.45" y1="927.68" x2="1071.58" y2="934.23"/>
			<line class="st3" x1="1074.88" y1="923.58" x2="1079" y2="930.14"/>
			<line class="st3" x1="1081.38" y1="917.72" x2="1085.51" y2="924.28"/>
			<line class="st3" x1="1087.75" y1="912.84" x2="1091.88" y2="919.39"/>
			<line class="st3" x1="1094.18" y1="906.62" x2="1098.31" y2="913.17"/>
			<line class="st3" x1="1098.96" y1="900.26" x2="1103.09" y2="906.81"/>
			<line class="st3" x1="1103.88" y1="893.1" x2="1108" y2="899.66"/>
		</g>
		<path class="st7" d="M1038.42,947.61c0,0,7.88,6.05,41.5-18.57c0,0,31.33-23.75,29.11-34.89"/>
	</g>
	<g>
		<g>
			<polygon class="st2" points="930.04,418.97 859.64,472.93 853.38,464.42 923.77,410.46 			"/>
			
				<ellipse transform="matrix(0.8017 -0.5978 0.5978 0.8017 -88.7954 622.7715)" class="st2" cx="894.08" cy="445.19" rx="44.34" ry="10.76"/>
			
				<ellipse transform="matrix(0.8017 -0.5978 0.5978 0.8017 -85.587 618.5494)" class="st2" cx="889.32" cy="438.25" rx="44.34" ry="10.76"/>
			<path class="st3" d="M924.57,411.55c3.39,4.89-9.8,20.68-29.46,35.28s-38.35,22.47-41.74,17.59"/>
			<g>
				<text transform="matrix(0.1596 0.25 -0.8156 0.5786 871.3365 443.8887)" class="st4 st5 st6">$</text>
			</g>
			<line class="st3" x1="861.04" y1="465.15" x2="865.75" y2="472.49"/>
			<line class="st3" x1="870.22" y1="461.7" x2="874.63" y2="468.65"/>
			<line class="st3" x1="879.26" y1="457.83" x2="883.68" y2="464.78"/>
			<line class="st3" x1="888.1" y1="452.3" x2="892.23" y2="458.85"/>
			<line class="st3" x1="895.52" y1="448.2" x2="899.65" y2="454.76"/>
			<line class="st3" x1="902.03" y1="442.34" x2="906.16" y2="448.9"/>
			<line class="st3" x1="908.4" y1="437.46" x2="912.53" y2="444.01"/>
			<line class="st3" x1="914.83" y1="431.24" x2="918.95" y2="437.79"/>
			<line class="st3" x1="919.61" y1="424.88" x2="923.74" y2="431.43"/>
			<line class="st3" x1="924.52" y1="417.72" x2="928.65" y2="424.28"/>
		</g>
		<path class="st7" d="M859.07,472.23c0,0,7.88,6.05,41.5-18.57c0,0,31.33-23.75,29.11-34.89"/>
	</g>
	<g>
		<g>
			<polygon class="st2" points="1200.29,321.89 1147.15,271.67 1153.25,265.46 1206.39,315.67 			"/>
			
				<ellipse transform="matrix(0.6964 -0.7177 0.7177 0.6964 144.0354 932.5931)" class="st2" cx="1174.23" cy="296.06" rx="8.87" ry="36.55"/>
			
				<ellipse transform="matrix(0.6964 -0.7177 0.7177 0.6964 148.9947 934.7501)" class="st2" cx="1179.26" cy="291.28" rx="8.87" ry="36.55"/>
			<path class="st8" d="M1205.61,316.47c-3.53,3.4-18.11-5.26-32.57-19.35c-14.46-14.09-23.32-28.26-19.79-31.66"/>
			<g>
				<text transform="matrix(-0.2214 0.1973 -0.701 -0.7132 1172.3873 277.4856)" class="st4 st5 st9">$</text>
			</g>
			<line class="st8" x1="1153.66" y1="271.79" x2="1148.31" y2="276.58"/>
			<line class="st8" x1="1157.67" y1="278.81" x2="1152.6" y2="283.31"/>
			<line class="st8" x1="1162.01" y1="285.66" x2="1156.93" y2="290.16"/>
			<line class="st8" x1="1167.67" y1="292.13" x2="1162.88" y2="296.35"/>
			<line class="st8" x1="1171.98" y1="297.63" x2="1167.19" y2="301.85"/>
			<line class="st8" x1="1177.6" y1="302.16" x2="1172.81" y2="306.38"/>
			<line class="st8" x1="1182.41" y1="306.7" x2="1177.62" y2="310.92"/>
			<line class="st8" x1="1188.31" y1="311.12" x2="1183.52" y2="315.34"/>
			<line class="st8" x1="1194.12" y1="314.18" x2="1189.32" y2="318.4"/>
			<line class="st8" x1="1200.58" y1="317.24" x2="1195.79" y2="321.46"/>
		</g>
		<path class="st10" d="M1147.65,271.12c0,0-3.89,7.2,20.56,31.34c0,0,23.43,22.39,32.21,19.11"/>
	</g>
	<g>
		<g>
			<polygon class="st2" points="793.34,258.19 740.2,207.97 746.31,201.76 799.45,251.97 			"/>
			
				<ellipse transform="matrix(0.6964 -0.7177 0.7177 0.6964 66.1973 621.2015)" class="st2" cx="767.29" cy="232.36" rx="8.87" ry="36.55"/>
			
				<ellipse transform="matrix(0.6964 -0.7177 0.7177 0.6964 71.1566 623.3585)" class="st2" cx="772.32" cy="227.58" rx="8.87" ry="36.55"/>
			<path class="st8" d="M798.66,252.77c-3.53,3.4-18.11-5.26-32.57-19.35c-14.46-14.09-23.32-28.26-19.79-31.66"/>
			<g>
				<text transform="matrix(-0.2214 0.1973 -0.701 -0.7132 765.4395 213.7854)" class="st4 st5 st9">$</text>
			</g>
			<line class="st8" x1="746.72" y1="208.09" x2="741.36" y2="212.88"/>
			<line class="st8" x1="750.73" y1="215.11" x2="745.65" y2="219.61"/>
			<line class="st8" x1="755.06" y1="221.96" x2="749.98" y2="226.46"/>
			<line class="st8" x1="760.72" y1="228.43" x2="755.93" y2="232.65"/>
			<line class="st8" x1="765.03" y1="233.93" x2="760.24" y2="238.15"/>
			<line class="st8" x1="770.65" y1="238.46" x2="765.86" y2="242.68"/>
			<line class="st8" x1="775.46" y1="243" x2="770.67" y2="247.22"/>
			<line class="st8" x1="781.36" y1="247.42" x2="776.57" y2="251.64"/>
			<line class="st8" x1="787.17" y1="250.48" x2="782.38" y2="254.7"/>
			<line class="st8" x1="793.63" y1="253.54" x2="788.84" y2="257.76"/>
		</g>
		<path class="st10" d="M740.7,207.42c0,0-3.89,7.2,20.56,31.34c0,0,23.43,22.39,32.21,19.11"/>
	</g>
	<g>
		<path class="st11" d="M1015.19,676.97c-25.25,0-45.71,20.47-45.71,45.71s20.47,45.71,45.71,45.71s45.71-20.47,45.71-45.71
			S1040.43,676.97,1015.19,676.97z M1015.73,759.12c-20.12,0-36.42-16.31-36.42-36.42c0-20.12,16.31-36.42,36.42-36.42
			s36.42,16.31,36.42,36.42C1052.15,742.82,1035.84,759.12,1015.73,759.12z"/>
		<g>
			<path class="st11" d="M1019.77,684.33h-8.13c-2.84,0-5.14-2.3-5.14-5.14v-8.13c0-2.84,2.3-5.14,5.14-5.14h8.13
				c2.84,0,5.14,2.3,5.14,5.14v8.13C1024.91,682.03,1022.61,684.33,1019.77,684.33z"/>
			<path class="st11" d="M999.79,687.5l-7.04,4.07c-2.46,1.42-5.6,0.58-7.02-1.88l-4.07-7.04c-1.42-2.46-0.58-5.6,1.88-7.02
				l7.04-4.07c2.46-1.42,5.6-0.58,7.02,1.88l4.07,7.04C1003.09,682.94,1002.25,686.08,999.79,687.5z"/>
			<path class="st11" d="M984.08,700.24l-4.07,7.04c-1.42,2.46-4.56,3.3-7.02,1.88l-7.04-4.07c-2.46-1.42-3.3-4.56-1.88-7.02
				l4.07-7.04c1.42-2.46,4.56-3.3,7.02-1.88l7.04,4.07C984.65,694.64,985.5,697.78,984.08,700.24z"/>
			<path class="st11" d="M976.83,719.13v8.13c0,2.84-2.3,5.14-5.14,5.14h-8.13c-2.84,0-5.14-2.3-5.14-5.14v-8.13
				c0-2.84,2.3-5.14,5.14-5.14h8.13C974.53,713.99,976.83,716.29,976.83,719.13z"/>
			<path class="st11" d="M980.01,739.11l4.07,7.04c1.42,2.46,0.58,5.6-1.88,7.02l-7.04,4.07c-2.46,1.42-5.6,0.58-7.02-1.88
				l-4.07-7.04c-1.42-2.46-0.58-5.6,1.88-7.02l7.04-4.07C975.45,735.81,978.59,736.66,980.01,739.11z"/>
			<path class="st11" d="M992.75,754.83l7.04,4.07c2.46,1.42,3.3,4.56,1.88,7.02l-4.07,7.04c-1.42,2.46-4.56,3.3-7.02,1.88
				l-7.04-4.07c-2.46-1.42-3.3-4.56-1.88-7.02l4.07-7.04C987.15,754.25,990.29,753.41,992.75,754.83z"/>
			<path class="st11" d="M1011.64,762.07h8.13c2.84,0,5.14,2.3,5.14,5.14v8.13c0,2.84-2.3,5.14-5.14,5.14h-8.13
				c-2.84,0-5.14-2.3-5.14-5.14v-8.13C1006.5,764.37,1008.8,762.07,1011.64,762.07z"/>
			<path class="st11" d="M1031.62,758.9l7.04-4.07c2.46-1.42,5.6-0.58,7.02,1.88l4.07,7.04c1.42,2.46,0.58,5.6-1.88,7.02l-7.04,4.07
				c-2.46,1.42-5.6,0.58-7.02-1.88l-4.07-7.04C1028.32,763.46,1029.16,760.32,1031.62,758.9z"/>
			<path class="st11" d="M1047.33,746.16l4.07-7.04c1.42-2.46,4.56-3.3,7.02-1.88l7.04,4.07c2.46,1.42,3.3,4.56,1.88,7.02
				l-4.07,7.04c-1.42,2.46-4.56,3.3-7.02,1.88l-7.04-4.07C1046.76,751.76,1045.92,748.62,1047.33,746.16z"/>
			<path class="st11" d="M1054.58,727.27v-8.13c0-2.84,2.3-5.14,5.14-5.14h8.13c2.84,0,5.14,2.3,5.14,5.14v8.13
				c0,2.84-2.3,5.14-5.14,5.14h-8.13C1056.88,732.41,1054.58,730.11,1054.58,727.27z"/>
			<path class="st11" d="M1051.4,707.29l-4.07-7.04c-1.42-2.46-0.58-5.6,1.88-7.02l7.04-4.07c2.46-1.42,5.6-0.58,7.02,1.88
				l4.07,7.04c1.42,2.46,0.58,5.6-1.88,7.02l-7.04,4.07C1055.97,710.59,1052.82,709.75,1051.4,707.29z"/>
			<path class="st11" d="M1038.66,691.57l-7.04-4.07c-2.46-1.42-3.3-4.56-1.88-7.02l4.07-7.04c1.42-2.46,4.56-3.3,7.02-1.88
				l7.04,4.07c2.46,1.42,3.3,4.56,1.88,7.02l-4.07,7.04C1044.27,692.15,1041.12,692.99,1038.66,691.57z"/>
		</g>
	</g>
	<g>
		<path class="st12" d="M388.03,448.66c-25.25,0-45.71,20.47-45.71,45.71s20.47,45.71,45.71,45.71s45.71-20.47,45.71-45.71
			S413.28,448.66,388.03,448.66z M388.57,530.81c-20.12,0-36.42-16.31-36.42-36.42s16.31-36.42,36.42-36.42
			c20.12,0,36.42,16.31,36.42,36.42S408.69,530.81,388.57,530.81z"/>
		<g>
			<path class="st12" d="M392.62,456.02h-8.13c-2.84,0-5.14-2.3-5.14-5.14v-8.13c0-2.84,2.3-5.14,5.14-5.14h8.13
				c2.84,0,5.14,2.3,5.14,5.14v8.13C397.76,453.72,395.46,456.02,392.62,456.02z"/>
			<path class="st12" d="M372.64,459.19l-7.04,4.07c-2.46,1.42-5.6,0.58-7.02-1.88l-4.07-7.04c-1.42-2.46-0.58-5.6,1.88-7.02
				l7.04-4.07c2.46-1.42,5.6-0.58,7.02,1.88l4.07,7.04C375.94,454.63,375.1,457.77,372.64,459.19z"/>
			<path class="st12" d="M356.92,471.93l-4.07,7.04c-1.42,2.46-4.56,3.3-7.02,1.88l-7.04-4.07c-2.46-1.42-3.3-4.56-1.88-7.02
				l4.07-7.04c1.42-2.46,4.56-3.3,7.02-1.88l7.04,4.07C357.5,466.33,358.34,469.47,356.92,471.93z"/>
			<path class="st12" d="M349.68,490.82v8.13c0,2.84-2.3,5.14-5.14,5.14h-8.13c-2.84,0-5.14-2.3-5.14-5.14v-8.13
				c0-2.84,2.3-5.14,5.14-5.14h8.13C347.38,485.68,349.68,487.98,349.68,490.82z"/>
			<path class="st12" d="M352.86,510.8l4.07,7.04c1.42,2.46,0.58,5.6-1.88,7.02l-7.04,4.07c-2.46,1.42-5.6,0.58-7.02-1.88
				l-4.07-7.04c-1.42-2.46-0.58-5.6,1.88-7.02l7.04-4.07C348.29,507.5,351.44,508.34,352.86,510.8z"/>
			<path class="st12" d="M365.6,526.52l7.04,4.07c2.46,1.42,3.3,4.56,1.88,7.02l-4.07,7.04c-1.42,2.46-4.56,3.3-7.02,1.88
				l-7.04-4.07c-2.46-1.42-3.3-4.56-1.88-7.02l4.07-7.04C359.99,525.94,363.14,525.1,365.6,526.52z"/>
			<path class="st12" d="M384.49,533.76h8.13c2.84,0,5.14,2.3,5.14,5.14v8.13c0,2.84-2.3,5.14-5.14,5.14h-8.13
				c-2.84,0-5.14-2.3-5.14-5.14v-8.13C379.35,536.06,381.65,533.76,384.49,533.76z"/>
			<path class="st12" d="M404.47,530.59l7.04-4.07c2.46-1.42,5.6-0.58,7.02,1.88l4.07,7.04c1.42,2.46,0.58,5.6-1.88,7.02l-7.04,4.07
				c-2.46,1.42-5.6,0.58-7.02-1.88l-4.07-7.04C401.17,535.15,402.01,532,404.47,530.59z"/>
			<path class="st12" d="M420.18,517.85l4.07-7.04c1.42-2.46,4.56-3.3,7.02-1.88l7.04,4.07c2.46,1.42,3.3,4.56,1.88,7.02l-4.07,7.04
				c-1.42,2.46-4.56,3.3-7.02,1.88l-7.04-4.07C419.61,523.45,418.76,520.3,420.18,517.85z"/>
			<path class="st12" d="M427.43,498.96v-8.13c0-2.84,2.3-5.14,5.14-5.14h8.13c2.84,0,5.14,2.3,5.14,5.14v8.13
				c0,2.84-2.3,5.14-5.14,5.14h-8.13C429.73,504.1,427.43,501.79,427.43,498.96z"/>
			<path class="st12" d="M424.25,478.98l-4.07-7.04c-1.42-2.46-0.58-5.6,1.88-7.02l7.04-4.07c2.46-1.42,5.6-0.58,7.02,1.88
				l4.07,7.04c1.42,2.46,0.58,5.6-1.88,7.02l-7.04,4.07C428.81,482.28,425.67,481.43,424.25,478.98z"/>
			<path class="st12" d="M411.51,463.26l-7.04-4.07c-2.46-1.42-3.3-4.56-1.88-7.02l4.07-7.04c1.42-2.46,4.56-3.3,7.02-1.88
				l7.04,4.07c2.46,1.42,3.3,4.56,1.88,7.02l-4.07,7.04C417.11,463.84,413.97,464.68,411.51,463.26z"/>
		</g>
	</g>
	<g>
		<path class="st12" d="M1038.11,73.33c-25.25,0-45.71,20.47-45.71,45.71s20.47,45.71,45.71,45.71c25.25,0,45.71-20.47,45.71-45.71
			S1063.36,73.33,1038.11,73.33z M1038.66,155.49c-20.12,0-36.42-16.31-36.42-36.42s16.31-36.42,36.42-36.42
			c20.12,0,36.42,16.31,36.42,36.42S1058.77,155.49,1038.66,155.49z"/>
		<g>
			<path class="st12" d="M1042.7,80.69h-8.13c-2.84,0-5.14-2.3-5.14-5.14v-8.13c0-2.84,2.3-5.14,5.14-5.14h8.13
				c2.84,0,5.14,2.3,5.14,5.14v8.13C1047.84,78.39,1045.54,80.69,1042.7,80.69z"/>
			<path class="st12" d="M1022.72,83.87l-7.04,4.07c-2.46,1.42-5.6,0.58-7.02-1.88l-4.07-7.04c-1.42-2.46-0.58-5.6,1.88-7.02
				l7.04-4.07c2.46-1.42,5.6-0.58,7.02,1.88l4.07,7.04C1026.02,79.3,1025.18,82.45,1022.72,83.87z"/>
			<path class="st12" d="M1007.01,96.61l-4.07,7.04c-1.42,2.46-4.56,3.3-7.02,1.88l-7.04-4.07c-2.46-1.42-3.3-4.56-1.88-7.02
				l4.07-7.04c1.42-2.46,4.56-3.3,7.02-1.88l7.04,4.07C1007.58,91,1008.42,94.15,1007.01,96.61z"/>
			<path class="st12" d="M999.76,115.5v8.13c0,2.84-2.3,5.14-5.14,5.14h-8.13c-2.84,0-5.14-2.3-5.14-5.14v-8.13
				c0-2.84,2.3-5.14,5.14-5.14h8.13C997.46,110.36,999.76,112.66,999.76,115.5z"/>
			<path class="st12" d="M1002.94,135.48l4.07,7.04c1.42,2.46,0.58,5.6-1.88,7.02l-7.04,4.07c-2.46,1.42-5.6,0.58-7.02-1.88
				l-4.07-7.04c-1.42-2.46-0.58-5.6,1.88-7.02l7.04-4.07C998.38,132.18,1001.52,133.02,1002.94,135.48z"/>
			<path class="st12" d="M1015.68,151.19l7.04,4.07c2.46,1.42,3.3,4.56,1.88,7.02l-4.07,7.04c-1.42,2.46-4.56,3.3-7.02,1.88
				l-7.04-4.07c-2.46-1.42-3.3-4.56-1.88-7.02l4.07-7.04C1010.08,150.62,1013.22,149.77,1015.68,151.19z"/>
			<path class="st12" d="M1034.57,158.44h8.13c2.84,0,5.14,2.3,5.14,5.14v8.13c0,2.84-2.3,5.14-5.14,5.14h-8.13
				c-2.84,0-5.14-2.3-5.14-5.14v-8.13C1029.43,160.74,1031.73,158.44,1034.57,158.44z"/>
			<path class="st12" d="M1054.55,155.26l7.04-4.07c2.46-1.42,5.6-0.58,7.02,1.88l4.07,7.04c1.42,2.46,0.58,5.6-1.88,7.02
				l-7.04,4.07c-2.46,1.42-5.6,0.58-7.02-1.88l-4.07-7.04C1051.25,159.82,1052.09,156.68,1054.55,155.26z"/>
			<path class="st12" d="M1070.26,142.52l4.07-7.04c1.42-2.46,4.56-3.3,7.02-1.88l7.04,4.07c2.46,1.42,3.3,4.56,1.88,7.02
				l-4.07,7.04c-1.42,2.46-4.56,3.3-7.02,1.88l-7.04-4.07C1069.69,148.12,1068.85,144.98,1070.26,142.52z"/>
			<path class="st12" d="M1077.51,123.63v-8.13c0-2.84,2.3-5.14,5.14-5.14h8.13c2.84,0,5.14,2.3,5.14,5.14v8.13
				c0,2.84-2.3,5.14-5.14,5.14h-8.13C1079.81,128.77,1077.51,126.47,1077.51,123.63z"/>
			<path class="st12" d="M1074.33,103.65l-4.07-7.04c-1.42-2.46-0.58-5.6,1.88-7.02l7.04-4.07c2.46-1.42,5.6-0.58,7.02,1.88
				l4.07,7.04c1.42,2.46,0.58,5.6-1.88,7.02l-7.04,4.07C1078.89,106.95,1075.75,106.11,1074.33,103.65z"/>
			<path class="st12" d="M1061.59,87.93l-7.04-4.07c-2.46-1.42-3.3-4.56-1.88-7.02l4.07-7.04c1.42-2.46,4.56-3.3,7.02-1.88
				l7.04,4.07c2.46,1.42,3.3,4.56,1.88,7.02l-4.07,7.04C1067.19,88.51,1064.05,89.35,1061.59,87.93z"/>
		</g>
	</g>
	<circle class="st13" cx="1435.29" cy="239.5" r="37.93"/>
	<polyline class="st14" points="1412.78,237.85 1432.62,256.69 1468.67,204.23 	"/>
</g>
<g id="Layer_15">
	<g>
		<g>
			<path class="st1" d="M1302.87,902.88l-0.14,38.13l-1.28,7.66l-76.69,2.36l-0.12-8c0,0,17.92-16.7,32.95-20.64l13.86-22.88
				l-3.92,12.36l3.92-12.36C1271.44,899.52,1301.45,895,1302.87,902.88z"/>
			<path class="st1" d="M1302.5,949.39l0.31-8.53l-76.73,2.02c-1.27,0.03-2.33,1.05-2.32,2.25l0.16,5.72"/>
		</g>
	</g>
	<g>
		<g>
			<path class="st1" d="M1363.63,901.97l0.14,38.13l1.28,7.66l76.69,2.36l0.12-8c0,0-17.92-16.7-32.95-20.64l-13.86-22.88
				l3.92,12.36l-3.92-12.36C1395.05,898.61,1365.04,894.09,1363.63,901.97z"/>
			<path class="st1" d="M1363.99,948.48l-0.31-8.53l76.73,2.02c1.27,0.03,2.33,1.05,2.32,2.25l-0.16,5.72"/>
		</g>
	</g>
</g>
<g id="Layer_14">
	<path class="st15" d="M1246.8,502.35c0,0-6.31,109.47,0.41,171.28c2.04,18.74,17.53,33.14,36.37,33.84l0,0
		c20.81,0.78,38.37-15.33,39.39-36.13l7.75-158.7c0,0-17.69-69.53-81.19-13.16"/>
	<path class="st15" d="M1246.38,665.25l11.73,246.23l49.51,1.85l15.34-241.99C1322.97,671.34,1263.88,592.68,1246.38,665.25z"/>
	<path class="st15" d="M1405.1,506.93c0,0,10.88,109.11,6.75,171.15c-1.25,18.81-16.13,33.84-34.92,35.33h0
		c-20.76,1.65-38.98-13.72-40.86-34.45l-14.38-158.24c0,0,15.79-70.47,81.58-16.81"/>
	<path class="st15" d="M1412.33,666.94l0.39,246.51l-54.89-0.49l-21.77-234.01C1336.07,678.96,1360.56,612.82,1412.33,666.94z"/>
</g>
<g id="Layer_7">
</g>
<g id="Layer_8">
	<path class="st16" d="M1275.29,196.04c0,0-0.53,15.33,7.64,20.37c8.17,5.04,0,0,0,0l0,0l7.78-1.72l0.39-18.65H1275.29z"/>
</g>
<g id="Layer_2">
	<path class="st17" d="M1255.38,304.06c31.53-13.23,28.66,9.76,28.66,9.76c14.91,28.61-13.76,59.87-13.76,59.87
		c-53.89,46.37-106.98,46.37-106.98,46.37c-20.64-24.08,8.38-60.43,8.38-60.43S1220.63,318.64,1255.38,304.06z"/>
	<g>
		<path class="st18" d="M1101.73,331.77l-11.47-11.6c4.25-15.22,6.6-27.09,25.28-23.02l14.85,17.69L1101.73,331.77z"/>
		<path class="st17" d="M1126.61,300.89l-36.34,29.03c0,0,42.42,91.98,79.11,90.13c19.11-0.96,22.98-13.86,22.3-26.01
			c-0.62-11.1-5.06-21.65-12.2-30.16L1126.61,300.89z"/>
	</g>
	<path class="st17" d="M1408.77,506.94l-8.97-66.94l-1.11-19.91l19.49-39.71V321.9c0,0-49.78-26.31-93.33-24.84
		c-42.89,1.45-69.49,7-69.49,7l-5.16,55.57l-4.85,60.43l-4.26,89.73c-0.36,7.55,4.78,14.27,12.15,15.91
		c55.92,12.46,101.63,6.86,140.9,0.78C1403.55,525.03,1410.03,516.34,1408.77,506.94z"/>
	<path class="st19" d="M1292.16,297.9"/>
	<path class="st20" d="M1292.16,297.9c0,0,8.38,14.09,27.87,9.47c19.49-4.62,23.97-15.3,23.97-15.3s-33.53-4.12-51.09,4.33"/>
	<path class="st19" d="M1250.22,359.62l2.15,25.23c0,0,4.48,21.31,0,63.48"/>
	<g>
		<path class="st18" d="M1301.6,275.71v25.09c-0.8,5.49,5.08,5.77,9.82,8.65c5.65,3.43,11.4,5.04,17.28,4.44
			c8.83-0.91,18.14,3.01,19.42-5.77l-0.79-40.44l0.01-17.42l-40.22,15.43L1301.6,275.71z"/>
		<path class="st16" d="M1300.74,293.67c13.08-3.85,38.82-11.74,35.43-23.47c-11.37,8.74-34.57,5.51-34.57,5.51L1300.74,293.67z"/>
	</g>
	<g>
		<path class="st18" d="M1327.08,278.58c-6.1,1.14-11.41,1.32-16.03,1.04c-33.23-1.98-28.19-31.14-27.36-47.8
			c0.45-9.04-2.4-29.37-2.4-29.37l17.29-19.67l54.7,7.96l-2.46,55.91C1350.17,261.14,1340.77,273.79,1327.08,278.58L1327.08,278.58z
			"/>
		<path class="st16" d="M1318.06,195.11l15.78,9.02c5.96,3.41,10.05,9.41,10.87,16.23c0.02,0.17,0.04,0.33,0.05,0.48l2.05,20.73
			l5.59,0.26l7.39-36.53c1.41-6.98,0.91-14.25-1.71-20.87c-4.03-10.18-13.59-21.13-36.26-16.82c-30.6,5.82-10.15,21.54-5.64,25.91
			C1316.78,194.08,1317.41,194.61,1318.06,195.11z"/>
		<g>
			
				<ellipse transform="matrix(0.9565 -0.2918 0.2918 0.9565 -10.3301 405.0571)" class="st18" cx="1352.62" cy="237.16" rx="8.18" ry="8.18"/>
			<line class="st21" x1="1351.04" y1="242.63" x2="1356.34" y2="233.22"/>
			<line class="st21" x1="1349.97" y1="234.1" x2="1353.25" y2="237.85"/>
		</g>
	</g>
	<path class="st22" d="M1306.85,236.69c0,0,0.09,6.04-4.2,6.07s-2.5,5.47,0.56,6.23"/>
	<path class="st21" d="M1303.03,258.65c0,0,12.94,2.47,18.76-6.43"/>
	<path d="M1325.82,224.42l-8.18-1.75c-0.48-0.1-0.78-0.57-0.68-1.05l0.29-1.33c0.1-0.48,0.57-0.78,1.05-0.68l8.18,1.75
		c0.48,0.1,0.78,0.57,0.68,1.05l-0.29,1.33C1326.77,224.22,1326.3,224.53,1325.82,224.42z"/>
	<path d="M1295.24,222.14l-7.63,1.67c-0.63,0.14-1.24-0.26-1.38-0.89l-0.17-0.79c-0.14-0.63,0.26-1.24,0.89-1.38l7.63-1.67
		c0.63-0.14,1.24,0.26,1.38,0.89l0.17,0.79C1296.26,221.39,1295.87,222.01,1295.24,222.14z"/>
	<g>
		<path class="st16" d="M1356,179.67c-11.34-15.8-29.36-22.91-48.63-25.54c2.98,4.48,7.4,8,12.44,9.89
			c-13.5-5.13-28.53-6.12-42.58-2.8c-1.15,0.27-2.42,0.66-2.97,1.7c-0.95,1.77,0.82,3.74,2.47,4.88c5.75,3.94,12.43,6.51,19.33,7.45
			c-5.89-1.94-12.19-2.63-18.36-2.03c-3.85,0.38-7.76,1.3-10.94,3.51s-5.51,5.91-5.29,9.78c0.4,7.18,8.49,11.11,15.51,12.7
			c15.65,3.55,32.2,3.07,47.61-1.38c5.97-1.72,11.92-4.12,16.51-8.32s7.62-12.98,6.61-19.12"/>
	</g>
	<circle class="st23" cx="1319.29" cy="231.41" r="2.34"/>
	<circle class="st23" cx="1293.04" cy="229.97" r="2.34"/>
	<line class="st24" x1="1302.71" y1="233.22" x2="1310.44" y2="233"/>
	<line class="st24" x1="1330.69" y1="233" x2="1353.72" y2="228.38"/>
	<polyline class="st25" points="1307.81,576.13 1330.71,592.47 1332.94,615.55 	"/>
</g>
<g id="Layer_10">
	<path class="st19" d="M1317.62,331.77c0,0-6.53,146.05,1.16,186.76"/>
</g>
<g id="Layer_3">
	<path class="st17" d="M1380.91,329.63c-6.34,9.19-8.41,20.67-6.11,31.59l26.48,125.62c0,0,3.5,27.2,44.15,8.17
		c26.26-12.29-2.83-117.66-14.28-156.12c-3.48-11.69-13.58-20.38-25.72-21.52C1397.26,316.6,1388.2,319.08,1380.91,329.63z"/>
	<path class="st26" d="M1292.16,297.9"/>
</g>
<g id="Layer_4">
	<polygon class="st17" points="1329.38,331.77 1360.56,304.88 1351.04,283.8 1318.53,308.12 1299.25,287.68 1289.16,297.9 
		1302.39,328.78 1317.62,313.82 	"/>
</g>
<g id="Layer_6">
	<path class="st15" d="M1180.42,356.31l65.99-2.52c2.18-0.08,4.2,1.13,5.16,3.09l40.2,82.44c1.75,3.6-0.79,7.8-4.79,7.92
		l-61.49,1.77c-2.07,0.06-4-1.05-4.99-2.86l-44.7-81.69C1173.83,360.87,1176.33,356.47,1180.42,356.31z"/>
	<circle class="st11" cx="1226.03" cy="390.11" r="3.72"/>
	<polyline class="st19" points="1179.48,363.14 1247.3,360.89 1269.14,409.2 	"/>
</g>
<g id="Layer_5">
	<path class="st18" d="M1304.85,463.28c0,0-15.08-0.92-19.09-1.5c-4.01-0.57-22.93-12.61-22.93-12.61
		c-6.88-4.59-4.59-10.89-4.59-10.89c-11.47-8.6-3.39-11.18-3.39-11.18c-7.45-1.26-18.39-7.01-18.39-7.01
		c-4.01-6.15,12.04-6.53,12.04-6.53h31.53l-2.87-4.21c-6.88-13.45,2.87-15.79,2.87-15.79l9.13,11.34
		c24.04,11.34,28.92,28.66,28.92,28.66S1323.37,450.44,1304.85,463.28z"/>
	<polygon class="st18" points="1331.62,438.28 1310.99,428.42 1304.85,463.28 1324.74,469.81 	"/>
	<path class="st17" d="M1328.96,427.85l-11.34,49.13c0,0,97.89,45.25,127.81,18.03c15.58-14.18,10.19-27.4,1.45-36.83
		c-7.99-8.61-18.85-14.1-30.65-16.04L1328.96,427.85z"/>
</g>
<g id="Layer_11">
</g>
<g id="Layer_9">
	<polyline class="st19" points="1379.78,384.85 1390.05,433.56 1397.36,427.85 	"/>
	<path class="st19" d="M1418.19,501.77c-16.05,2.15-100.57-24.79-100.57-24.79l11.34-49.13c0,0,79.41,10.06,92.66,15.45"/>
	<polyline class="st19" points="1289.16,297.9 1302.39,328.78 1317.62,313.82 1329.38,331.77 1360.56,304.88 	"/>
</g>
<g id="Layer_12">
	<g>
		<path class="st21" d="M1089.86,290.71"/>
		<path class="st18" d="M1117.91,300.31c0,0-16.17-28.38-23.62-35.83l-26.37-30.38c0,0-7.45,2.29-2.87,11.47l8.6,12.61l6.31,9.03
			l-8.52-4.77c-2.25-1.26-4.91-1.54-7.37-0.77l-5.32,1.66l-14.33,8.6c0,0-3.44,5.61,9.17,3.89l7.38-2.22
			c1.47-1.03,3.37-1.23,5.01-0.5l4.81,2.11c0,0-14.33,2.07-14.33,11.44c0,0-10.32,5.89,0.57,15.37c0,0,9.17,3.46,8.03-5.28
			c0,0,14.28,19.29,26.35,24.77C1103.46,326.97,1117.91,300.31,1117.91,300.31z"/>
		<path class="st21" d="M1105.93,280.48l-11.7-2.65c-1.09-0.25-2.22-0.26-3.32-0.05l-15.53,3.06c0,0-6.05,8.02,5.58,9.88h13.92
			l6.43,4.23"/>
		<path class="st21" d="M1056.45,286.64l5.16,8.3c0,0,0.02,0.02,0.07,0.06c2.75,2.15,6.62-0.62,5.54-3.94l-1.59-4.86
			c0,0,0.57-5.36,5.16-5.36"/>
		<path class="st21" d="M1044.41,271.93c0,0-1.72,8.95,19.21,0.75l7.17,2.53"/>
		<path class="st21" d="M1089.86,290.71c0,0-3.28,3.58,0,9.88h-5.32"/>
		<polyline class="st21" points="1065.05,245.56 1073.65,258.17 1077.09,256 		"/>
	</g>
	<path class="st21" d="M1236.46,420.09c0,0,15,6.73,18.39,7.01c3.39,0.28,14.28,0,14.28,0"/>
	<line class="st21" x1="1258.24" y1="438.28" x2="1269.14" y2="438.28"/>
	<path class="st21" d="M1262.83,449.17"/>
	<polyline class="st21" points="1258.24,413.56 1288.34,413.56 1292.33,416.49 	"/>
	<line class="st21" x1="1262.83" y1="449.17" x2="1273.15" y2="449.17"/>
</g>
<g id="Layer_13">
	<circle class="st24" cx="1292.59" cy="233.22" r="10.13"/>
	<circle class="st24" cx="1320.56" cy="233.75" r="10.13"/>
	<g>
		<path class="st27" d="M1549.88,681.31c-0.17,0.35-0.33,0.7-0.5,1.06c0,0-17.63,31.23,5.47,75.53c0,0,31.9-5.5,48.37-57.75
			c0,0,1.4-4.45,2.3-10.77C1610.26,655.96,1565.1,649.41,1549.88,681.31z"/>
		<path class="st28" d="M1578.94,694.74c0,0-47.34,83.77-40.74,187.89"/>
	</g>
	<g>
		<path class="st27" d="M1458.5,721.18c0.13,0.31,0.27,0.62,0.41,0.93c0,0,16.7,46.37,58.85,40.47c0,0,17.28-21.5-8.43-62.39
			c0,0-2.19-3.48-6.07-7.76C1482.75,669.76,1446.42,693.1,1458.5,721.18z"/>
		<path class="st28" d="M1481.93,707.36c0,0,68.15,74.61,55.79,174.51"/>
	</g>
	<g>
		<g>
			<path class="st27" d="M1557.52,845.36c9.27-0.66,18.25-4.88,24.66-11.6c6.42-6.72,10.22-15.89,10.44-25.18
				c0.07-2.7-0.19-5.51-1.55-7.84c-2.15-3.71-6.81-5.47-11.08-5.07c-4.27,0.4-8.18,2.63-11.5,5.34
				c-11.74,9.59-16.16,23.96-12.52,38.68L1557.52,845.36"/>
		</g>
		<path class="st28" d="M1573.2,811.94c0,0-27.53,38.36-26.27,90.21"/>
	</g>
	<g>
		<path class="st27" d="M1472.24,815.21c0.13,0.24,0.27,0.47,0.4,0.71c0,0,16.72,36.39,50.08,28.14c0,0,12.64-19.26-11.42-49.95
			c0,0-2.05-2.61-5.52-5.73C1487.43,771.89,1460.2,793.66,1472.24,815.21z"/>
		<path class="st28" d="M1488.45,801.7c0,0,53.4,48.79,55.15,108.22"/>
	</g>
	<g>
		<polygon class="st29" points="1500.78,869.27 1577.49,869.27 1568.04,946.83 1510.89,946.83 		"/>
		<line class="st30" x1="1504.03" y1="894.22" x2="1574.72" y2="893.45"/>
		<line class="st30" x1="1504.03" y1="900.25" x2="1574.72" y2="899.49"/>
	</g>
	<g>
		
			<rect x="891.56" y="923.84" transform="matrix(-0.9997 -0.0246 0.0246 -0.9997 1846.7875 1884.2771)" class="st2" width="86.85" height="13.88"/>
		
			<ellipse transform="matrix(4.139269e-03 -1 1 4.139269e-03 -5.1753 1867.4448)" class="st2" cx="935.01" cy="936.32" rx="14.13" ry="43.43"/>
		
			<ellipse transform="matrix(4.139269e-03 -1 1 4.139269e-03 5.8603 1856.4414)" class="st2" cx="935" cy="925.28" rx="14.13" ry="43.43"/>
		<path class="st31" d="M891.7,924.55c-0.03,7.8,19.39,14.21,43.37,14.31s43.46-6.14,43.49-13.95"/>
		<g>
			<text transform="matrix(9.841111e-03 0.3961 0.9997 -0.0249 952.5657 917.2365)" class="st4 st5 st32">$</text>
		</g>
		<line class="st31" x1="972.78" y1="931.65" x2="973.05" y2="943.07"/>
		<line class="st31" x1="963.45" y1="935.16" x2="963.73" y2="945.94"/>
		<line class="st31" x1="954" y1="938.12" x2="954.28" y2="948.9"/>
		<line class="st31" x1="943.78" y1="939.16" x2="944.08" y2="949.3"/>
		<line class="st31" x1="935.51" y1="940.62" x2="935.81" y2="950.76"/>
		<line class="st31" x1="927" y1="939.5" x2="927.3" y2="949.64"/>
		<line class="st31" x1="919.14" y1="939.3" x2="919.44" y2="949.44"/>
		<line class="st31" x1="910.5" y1="937.75" x2="910.8" y2="947.89"/>
		<line class="st31" x1="903.1" y1="934.76" x2="903.4" y2="944.89"/>
		<line class="st31" x1="895.17" y1="931.03" x2="895.47" y2="941.17"/>
	</g>
	<path class="st20" d="M329.05,1080.4l36.99-74.23c12.72-24.83,23.24-50.72,31.44-77.38l-0.26-36.03
		c1.56-5.07,6.62-10.19,10.47-13.84c12.99-12.32,43.14-44.1,94.9-32.94c46.36,10,85.19,41.44,87.19,66.77
		c0.54,6.78-11.5,18.78-14.03,25.1l-7.59,18.97l-7,26.25c-6.01,22.52-9.8,45.57-11.34,68.83l0.64,27.91L329.05,1080.4z"/>
	<g>
		<path class="st20" d="M607.69,901.27c24.33-22.62,54.12-62,61.54-94.37c7.42-32.38-3.36-70.68-32.08-87.35
			c-18.91-10.98-42.01-11.21-63.85-10.18c-25.22,1.2-50.84,3.8-74.11,13.61c-23.27,9.8-44.16,27.8-52.18,51.75
			c-6.88,20.54-4.83,43.69-3.2,64.91c1.89,24.59,2.11,56.85,13.15,79.37c9.46,19.27,38.23,24.02,56.79,28.9
			c17.08,4.5,40.93,10.64,52.03-3.67C585.24,919.14,593.19,914.75,607.69,901.27z"/>
		<path class="st33" d="M537.3,908.7c0,0,41,42.38,102.28-43.65"/>
	</g>
	<g>
		<path class="st20" d="M706.15,813.59c2.52,3.39,7.82,2.63,11.64,0.83c15.39-7.23,23.81-25.95,20.66-42.66s-16.65-30.57-32.8-35.91
			c-0.24,15.04-2.85,29.76-3.58,44.7C701.67,788.94,701.26,807.02,706.15,813.59z"/>
		<path class="st20" d="M708.89,522.91c7.3-2.99,14.94-5.88,22.81-5.46s16.07,5.02,18.23,12.6c2.31,8.16-2.78,16.44-8.04,23.09
			c-15.07,19.06-33.59,35.38-54.4,47.92c-1.57,0.95-23.13-19.59-25.34-21.82c-6.86-6.89-10.9-13.13-6.27-22.64
			C664.29,539.27,692.37,529.67,708.89,522.91z"/>
		<path class="st20" d="M713.03,596.54l47.49,31.66c0,0,16.76,12.1,5.3,23.2c-9.65,9.34-56.51,11.25-56.51,11.25L713.03,596.54z"/>
		<path class="st20" d="M709.3,671.03c0,0,38.56,6.52,44.84,28.86l4.04,68.57c0.38,6.38-4.07,12.18-10.39,13.12
			c-7.22,1.08-17.07-2.07-26.39-20.24l-12.1-20.93V671.03z"/>
	</g>
	<g>
		<g>
			<g>
				<g>
					<g>
						<g>
							<g>
								<path class="st34" d="M688.2,803.25l-167.9-0.1c-20.19-0.01-36.56-16.39-36.55-36.58l0.08-420.93
									c0-20.2,16.39-36.58,36.59-36.57l167.9,0.1c20.19,0.01,36.56,16.39,36.55,36.58l-0.08,420.93
									C724.79,786.89,708.4,803.27,688.2,803.25z"/>
							</g>
						</g>
					</g>
				</g>
			</g>
		</g>
		<g>
			<g>
				<g>
					<g>
						<g>
							<g>
								<g>
									<g>
										<g>
											<path class="st11" d="M688.14,324.04l-32.55-0.01c-4.37,0-7.91,3.55-7.91,7.94l0,5.67c0,4.39-3.54,7.94-7.91,7.94
												l-63.45-0.03c-4.37,0-7.9-3.56-7.9-7.94l0-5.67c0-4.39-3.54-7.94-7.9-7.94l-11.45,0l-28.49-0.01
												c-14.15-0.01-25.63,11.02-25.63,24.61l-0.15,394.81C494.8,756.98,506.25,768,520.4,768l167.56,0.07
												c14.15,0.01,25.63-11.01,25.63-24.61l0.15-394.81C713.74,335.06,702.29,324.04,688.14,324.04z"/>
										</g>
									</g>
								</g>
							</g>
						</g>
					</g>
				</g>
			</g>
		</g>
		<g>
			<g>
				<path class="st35" d="M688.14,324.07l-32.55-0.02c-4.37,0-7.91,3.7-7.91,8.26l0,5.9c0,4.56-3.54,8.26-7.91,8.26l-63.45-0.04
					c-4.37,0-7.9-3.7-7.9-8.27l0-5.9c0-4.56-3.54-8.27-7.9-8.27l-11.45-0.01l-28.49-0.02c-14.15-0.01-25.63,11.46-25.63,25.61
					l-0.08,20.16l218.87-1.21v-18.85C713.75,335.54,702.29,324.07,688.14,324.07z"/>
			</g>
		</g>
		<g>
			<g>
				<g>
					<path class="st36" d="M630.51,367.74"/>
				</g>
			</g>
		</g>
	</g>
	<path class="st17" d="M536.09,525.81l132.43,0c8.02,0,14.53-6.5,14.53-14.53l0-81.63c0-8.02-6.5-14.53-14.53-14.53l-132.43,0
		c-8.02,0-14.53,6.5-14.53,14.53l0,81.63C521.57,519.3,528.07,525.81,536.09,525.81z"/>
	<path class="st37" d="M720.94,730.27c0,0,19.47,23.96,16.62,50.93"/>
	<g>
		<rect x="518.79" y="341.37" class="st34" width="2.79" height="13.49"/>
		<rect x="523.16" y="345.01" class="st34" width="2.79" height="9.85"/>
		<rect x="527.82" y="347.37" class="st34" width="2.79" height="7.49"/>
		<rect x="532.47" y="350.51" class="st34" width="2.79" height="4"/>
	</g>
	<g>
		<rect x="670.28" y="345.17" class="st34" width="17.72" height="8.71"/>
		<rect x="668.02" y="346.75" class="st34" width="4.32" height="5.14"/>
	</g>
	<g>
		<g>
			<path class="st18" d="M574.63,913.68"/>
			<path class="st20" d="M539.59,849.69c0.08-1.28,1.48-1.25,0.23-2.23c-0.72-0.57-1.14-1.45-1.18-2.37
				c-1.65-34.63-3.58-70.47-19.32-101.37c-5.09-10-11.58-19.36-15.24-29.96c-2.27-6.58-3.4-13.49-4.51-20.36
				c-3.75-23.08-7.23-48.04,3.53-68.81c14.97-28.91,8.71-67.45-15.24-89.73c-2.16-2.01-5.02-3.17-7.96-3.03
				c-6.6,0.32-8.65,6.67-9.99,12.12c-14.4,58.36-32.2,115.89-53.28,172.18c-3.61,9.63-7.32,19.25-9.81,29.23
				c-3.61,14.44-4.61,29.38-5.59,44.23l-5.36,80.9c-0.05,0.83-0.1,1.65-0.13,2.48c-3.02,77.8,106.14,99.08,133.87,26.33
				C534.72,885.91,538.35,869.59,539.59,849.69z"/>
			<path class="st33" d="M484.74,531.8c0,0,38.03,32.65,24.89,78.48c0,0-16.14,26.36-13.89,64.67l4.42,21.97
				c1.26,9.03,2.82,13.06,8.45,25.44c8.01,17.63,26.66,45.4,28.29,93.59"/>
		</g>
		<path class="st38" d="M469.91,543.96c0,0,15.94,13.59,7,38.64l-7,26.32l-15.42-7.27"/>
	</g>
	<path class="st17" d="M660.23,728.58H542.39c-8.86,0-16.05-7.18-16.05-16.05l0,0c0-8.86,7.18-16.05,16.05-16.05h117.84
		c8.86,0,16.05,7.18,16.05,16.05l0,0C676.28,721.4,669.09,728.58,660.23,728.58z"/>
	<polyline class="st39" points="576.63,642.77 602.31,658.72 634.51,620.5 	"/>
	<text transform="matrix(1 0 0 1 552.8495 579.4352)" class="st15 st40 st41">$5000</text>
	<path class="st11" d="M556.61,452.47l-17.68,0c-1.91,0-3.46-1.55-3.46-3.46l0-17.68c0-1.91,1.55-3.46,3.46-3.46l17.68,0
		c1.91,0,3.46,1.55,3.46,3.46l0,17.68C560.07,450.92,558.52,452.47,556.61,452.47z"/>
	<path class="st11" d="M650.16,477.56H540.58c-2.54,0-4.6-2.06-4.6-4.6v0c0-2.54,2.06-4.6,4.6-4.6h109.58c2.54,0,4.6,2.06,4.6,4.6v0
		C654.76,475.51,652.7,477.56,650.16,477.56z"/>
	<path class="st11" d="M585.2,499.48h-44.62c-2.54,0-4.6-2.06-4.6-4.6l0,0c0-2.54,2.06-4.6,4.6-4.6h44.62c2.54,0,4.6,2.06,4.6,4.6
		l0,0C589.8,497.43,587.74,499.48,585.2,499.48z"/>
	<path class="st11" d="M661.9,513h-20.79c-2.54,0-4.6-2.06-4.6-4.6v0c0-2.54,2.06-4.6,4.6-4.6h20.79c2.54,0,4.6,2.06,4.6,4.6v0
		C666.49,510.94,664.44,513,661.9,513z"/>
	<path class="st11" d="M662.43,450.93h-87.71c-2.54,0-4.6-2.06-4.6-4.6l0,0c0-2.54,2.06-4.6,4.6-4.6h87.71c2.54,0,4.6,2.06,4.6,4.6
		l0,0C667.02,448.87,664.97,450.93,662.43,450.93z"/>
	<text transform="matrix(1 0 0 1 549.7706 721.2004)" class="st11 st40 st42">TRANSFER</text>
	<path class="st11" d="M625,791.61h-51.36c-3.6,0-6.51-2.92-6.51-6.51l0,0c0-3.6,2.92-6.51,6.51-6.51H625c3.6,0,6.51,2.92,6.51,6.51
		l0,0C631.51,788.7,628.6,791.61,625,791.61z"/>
	<g>
		<path class="st2" d="M630.37,398.35c0,0,31.69-67.79,85.68-68.6c69.65-1.04,76.57-26.12,76.57-26.12l56.15,54.89
			c0,0-29.36,25.68-75.29,25.76c-21.75,0.04-48.99,9.25-63.71,25.26c-13.79,14.99-23.38,45.82-31.48,46.79L630.37,398.35z"/>
		<path class="st43" d="M820.7,358.73c0,2.43,0.85,4.65,2.26,6.39c-12.95,6.12-32.77,9.23-45.19,10.66
			c-5.71,0.65-11.44,0.85-17.17,0.81c-33.22-0.21-54.98,21.96-54.98,21.96c-7.31,5.67-15.48,17.9-21.23,27.48
			c-1.74-3.12-5.08-5.22-8.9-5.22c-4.07,0-7.58,2.39-9.21,5.83l-20.32-24.06c3.74-1.5,6.38-5.17,6.38-9.44
			c0-3.26-1.53-6.16-3.92-8.03c0.4-0.63,0.82-1.24,1.26-1.85c8.43-11.85,26.17-33.85,44.86-39.17c0,0,22.22-6.66,50-6.27
			c0,0,26.91-2.47,41.08-12.21c1.84,2.68,4.92,4.44,8.41,4.44c3.34,0,6.3-1.61,8.16-4.09l24.22,23.62
			C823.03,351.24,820.7,354.71,820.7,358.73z"/>
		
			<ellipse transform="matrix(0.8396 -0.5431 0.5431 0.8396 -78.2925 453.6364)" class="st2" cx="729.11" cy="359.41" rx="13.17" ry="16.78"/>
		<text transform="matrix(0.2594 -0.1437 0.4846 0.8747 732.7094 369.8648)" class="st11 st5 st44">$</text>
		
			<ellipse transform="matrix(0.7653 -0.6437 0.6437 0.7653 -41.8652 583.453)" class="st2" cx="779.04" cy="349.13" rx="6.17" ry="11.86"/>
		
			<ellipse transform="matrix(0.7653 -0.6437 0.6437 0.7653 -80.3834 533.4831)" class="st2" cx="691.27" cy="376.96" rx="6.17" ry="11.86"/>
	</g>
	<g>
		<g>
			<path class="st2" d="M884.91,257.3l36.28,39.74c0,0,7.27-24.32,50.45-49.66c27.72-16.28,60.11-13.66,60.11-13.66l-35.52-39.63
				C996.22,194.09,935.3,191.15,884.91,257.3z"/>
			<path class="st43" d="M1011.3,227.15c0,0.84,0.15,1.65,0.42,2.4c-10.78,1.48-29.12,5.03-42.8,13.06
				c-21.21,12.45-35.96,27.66-43.53,36.56c-1.14-2.3-3.52-3.89-6.26-3.89c-2.75,0-5.13,1.59-6.27,3.89l-15.24-17.12
				c2.29-1.14,3.86-3.52,3.86-6.25c0-2.69-1.52-5.02-3.75-6.19c25.75-36.53,66.67-47.23,85.05-50.28c0.55,3.3,3.42,5.81,6.88,5.81
				c2.54,0,4.76-1.36,5.98-3.38l18.48,19.76C1012.41,222.81,1011.3,224.85,1011.3,227.15z"/>
		</g>
		
			<ellipse transform="matrix(0.7777 -0.6287 0.6287 0.7777 66.9735 649.912)" class="st2" cx="952.38" cy="230.26" rx="9" ry="11.65"/>
		
			<ellipse transform="matrix(0.7652 -0.6438 0.6438 0.7652 88.1994 679.5806)" class="st2" cx="975.81" cy="218.87" rx="3.58" ry="6.88"/>
		
			<ellipse transform="matrix(0.7652 -0.6438 0.6438 0.7652 60.9508 658.5104)" class="st2" cx="933.3" cy="245.69" rx="3.58" ry="6.88"/>
		<text transform="matrix(0.2328 -0.1837 0.6194 0.7851 956.6602 238.5246)" class="st11 st5 st45">$</text>
	</g>
	<g>
		<g>
			<path class="st2" d="M1147.73,347.46l-27.61-46.19c0,0-11.98,22.38-59.34,38.59c-30.42,10.41-61.63,1.39-61.63,1.39l26.89,45.93
				C1026.03,387.18,1085.14,402.22,1147.73,347.46z"/>
			<path class="st43" d="M1017.86,351.77c0.17-0.82,0.18-1.65,0.06-2.44c10.86,0.7,29.53,0.88,44.55-4.25
				c23.27-7.97,40.76-19.93,49.95-27.13c0.66,2.48,2.67,4.51,5.36,5.06c2.69,0.55,5.34-0.53,6.92-2.56l11.51,19.81
				c-2.47,0.66-4.49,2.68-5.03,5.36c-0.54,2.64,0.49,5.22,2.44,6.81c-32.52,30.66-74.75,32.97-93.37,32.29
				c0.12-3.34-2.19-6.38-5.58-7.07c-2.49-0.51-4.94,0.38-6.53,2.12l-14.17-23.06C1015.9,355.81,1017.4,354.03,1017.86,351.77z"/>
		</g>
		
			<ellipse transform="matrix(0.8875 -0.4608 0.4608 0.8875 -45.0492 536.4281)" class="st2" cx="1076.21" cy="360.49" rx="9" ry="11.65"/>
		
			<ellipse transform="matrix(0.8783 -0.4781 0.4781 0.8783 -47.5601 547.0844)" class="st2" cx="1050.98" cy="366.98" rx="3.58" ry="6.88"/>
		
			<ellipse transform="matrix(0.8783 -0.4781 0.4781 0.8783 -33.3322 567.3929)" class="st2" cx="1097.99" cy="349.18" rx="3.58" ry="6.88"/>
		<text transform="matrix(-0.2648 0.1335 -0.4502 -0.8929 1073.6803 351.4846)" class="st11 st5 st45">$</text>
	</g>
	<g class="st46">
		<circle class="st47" cx="1015.71" cy="463.34" r="50.58"/>
		<g>
			<text transform="matrix(1 0 0 1 988.4092 494.1478)" class="st11 st5 st48">$</text>
		</g>
	</g>
	<g class="st46">
		<circle class="st47" cx="1513.43" cy="592.47" r="50.58"/>
		<g>
			<text transform="matrix(1 0 0 1 1486.1355 623.2828)" class="st11 st5 st48">$</text>
		</g>
	</g>
	<g class="st46">
		<circle class="st47" cx="1543.6" cy="347.37" r="50.58"/>
		<g>
			<text transform="matrix(1 0 0 1 1516.307 378.1838)" class="st11 st5 st48">$</text>
		</g>
	</g>
	<g class="st46">
		<circle class="st47" cx="760.72" cy="877.75" r="50.58"/>
		<g>
			<text transform="matrix(1 0 0 1 733.4279 908.5608)" class="st11 st5 st48">$</text>
		</g>
	</g>
</g>
</svg>
