<svg id="visual" viewBox="0 0 900 600" width="900" height="600" xmlns="http://www.w3.org/2000/svg" xmlns:xlink="http://www.w3.org/1999/xlink" version="1.1"><rect x="0" y="0" width="900" height="600" fill="#fce7f3"></rect><path d="M0 49L16.7 51.8C33.3 54.7 66.7 60.3 100 61.3C133.3 62.3 166.7 58.7 200 55C233.3 51.3 266.7 47.7 300 43.8C333.3 40 366.7 36 400 41.8C433.3 47.7 466.7 63.3 500 72.5C533.3 81.7 566.7 84.3 600 84.2C633.3 84 666.7 81 700 75C733.3 69 766.7 60 800 61.5C833.3 63 866.7 75 883.3 81L900 87L900 0L883.3 0C866.7 0 833.3 0 800 0C766.7 0 733.3 0 700 0C666.7 0 633.3 0 600 0C566.7 0 533.3 0 500 0C466.7 0 433.3 0 400 0C366.7 0 333.3 0 300 0C266.7 0 233.3 0 200 0C166.7 0 133.3 0 100 0C66.7 0 33.3 0 16.7 0L0 0Z" fill="#fff" stroke-linecap="round" stroke-linejoin="miter"></path></svg>